<?xml version="1.0" encoding="UTF-8"?>
<svg id="Layer_2" data-name="Layer 2" xmlns="http://www.w3.org/2000/svg" viewBox="0 0 274.01 274.01">
  <defs>
    <style>
      .cls-1 {
        fill: #3cc68a;
      }

      .cls-2 {
        fill: #fff;
        opacity: 0;
      }

      .cls-3 {
        fill: #e7b339;
      }
    </style>
  </defs>
  <g id="Layer_1-2" data-name="Layer 1">
    <g>
      <rect class="cls-2" width="274.01" height="274.01"/>
      <g>
        <g>
          <path class="cls-1" d="M217.59,95.99c0,44.43-36.15,80.58-80.58,80.58s-80.58-36.15-80.58-80.58H9.43c0,70.46,57.12,127.58,127.58,127.58s127.58-57.12,127.58-127.58h-47Z"/>
          <path class="cls-1" d="M112.72,207.69h48.56v35.6c0,4.87-3.96,8.83-8.83,8.83h-30.91c-4.87,0-8.83-3.96-8.83-8.83v-35.6h0Z"/>
          <g>
            <path class="cls-1" d="M212.73,170.44h48.56v35.6c0,4.87-3.96,8.83-8.83,8.83h-30.91c-4.87,0-8.83-3.96-8.83-8.83v-35.6h0Z" transform="translate(-66.81 224.02) rotate(-45)"/>
            <path class="cls-1" d="M12.72,170.44h48.56v35.6c0,4.87-3.96,8.83-8.83,8.83h-30.91c-4.87,0-8.83-3.96-8.83-8.83v-35.6h0Z" transform="translate(147.06 30.26) rotate(45)"/>
          </g>
        </g>
        <g>
          <path class="cls-3" d="M115.83,88.25L30.22,63.52c-5.17-1.49-7.74-7.33-5.3-12.13,11.5-22.64,37.79-34.67,63.08-27.36,25.3,7.31,41.13,31.5,38.78,56.79-.5,5.36-5.78,8.93-10.95,7.44Z"/>
          <path class="cls-3" d="M158.18,88.25l85.61-24.73c5.17-1.49,7.74-7.33,5.3-12.13-11.5-22.64-37.79-34.67-63.08-27.36-25.3,7.31-41.13,31.5-38.78,56.79.5,5.36,5.78,8.93,10.95,7.44Z"/>
        </g>
      </g>
    </g>
  </g>
</svg>