<?xml version="1.0" encoding="UTF-8"?>
<svg id="Layer_2" data-name="Layer 2" xmlns="http://www.w3.org/2000/svg" viewBox="0 0 258.45 230.22">
  <defs>
    <style>
      .cls-1 {
        fill: #3cc68a;
      }

      .cls-2 {
        fill: #e7b339;
      }
    </style>
  </defs>
  <g id="Layer_1-2" data-name="Layer 1">
    <g>
      <g>
        <path class="cls-1" d="M209.8,74.09c0,44.43-36.15,80.58-80.58,80.58S48.64,118.52,48.64,74.09H1.64c0,70.46,57.12,127.58,127.58,127.58s127.58-57.12,127.58-127.58h-47Z"/>
        <path class="cls-1" d="M104.94,185.8h48.56v35.6c0,4.87-3.96,8.83-8.83,8.83h-30.91c-4.87,0-8.83-3.96-8.83-8.83v-35.6h0Z"/>
        <g>
          <path class="cls-1" d="M204.94,148.55h48.56v35.6c0,4.87-3.96,8.83-8.83,8.83h-30.91c-4.87,0-8.83-3.96-8.83-8.83v-35.6h0Z" transform="translate(-53.61 212.1) rotate(-45)"/>
          <path class="cls-1" d="M4.94,148.55h48.56v35.6c0,4.87-3.96,8.83-8.83,8.83H13.76c-4.87,0-8.83-3.96-8.83-8.83v-35.6h0Z" transform="translate(129.3 29.35) rotate(45)"/>
        </g>
      </g>
      <g>
        <path class="cls-2" d="M108.05,66.36L22.44,41.63c-5.17-1.49-7.74-7.33-5.3-12.13C28.63,6.85,54.93-5.17,80.22,2.13s41.13,31.5,38.78,56.79c-.5,5.36-5.78,8.93-10.95,7.44Z"/>
        <path class="cls-2" d="M150.4,66.36l85.61-24.73c5.17-1.49,7.74-7.33,5.3-12.13-11.5-22.64-37.79-34.67-63.08-27.36-25.3,7.31-41.13,31.5-38.78,56.79.5,5.36,5.78,8.93,10.95,7.44Z"/>
      </g>
    </g>
  </g>
</svg>